HIERARCHY
ROOT Hips
{
  OFFSET 54.9716 85.721 13.6922
  CHANNELS 6 Xposition Yposition Zposition Zrotation Xrotation Yrotation
  JOINT spine
  {
    OFFSET 0 6.3926 0.367606
    CHANNELS 3 Zrotation Xrotation Yrotation
    JOINT spine1
    {
      OFFSET 0 9.17611 0
      CHANNELS 3 Zrotation Xrotation Yrotation
      JOINT spine2
      {
        OFFSET 0 8.79238 0
        CHANNELS 3 Zrotation Xrotation Yrotation
        JOINT Neck
        {
          OFFSET 0 22.5737 1.07624
          CHANNELS 3 Zrotation Xrotation Yrotation
          JOINT Head
          {
            OFFSET 0 6.82011 0
            CHANNELS 3 Zrotation Xrotation Yrotation
            End Site
            {
              OFFSET 0 16.5085 -5.44427
            }
          }
        }
        JOINT RightShoulder
        {
          OFFSET -3.70221 9.49509 -0.515508
          CHANNELS 3 Zrotation Xrotation Yrotation
          JOINT RightArm
          {
            OFFSET 0 12.4537 0
            CHANNELS 3 Zrotation Xrotation Yrotation
            JOINT RightArmRoll
            {
              OFFSET 0 6.28686 0
              CHANNELS 3 Zrotation Xrotation Yrotation
              JOINT RightForeArm
              {
                OFFSET 0 18.3114 0
                CHANNELS 3 Zrotation Xrotation Yrotation
                JOINT RightForeArmRoll
                {
                  OFFSET 0 7.05483 0
                  CHANNELS 3 Zrotation Xrotation Yrotation
                  JOINT RightHand
                  {
                    OFFSET 0 14.1575 0
                    CHANNELS 3 Zrotation Xrotation Yrotation
                    End Site
                    {
                      OFFSET 0 0 0
                    }
                  }
                }
              }
            }
          }
        }
        JOINT LeftShoulder
        {
          OFFSET 3.70221 9.49509 -0.515508
          CHANNELS 3 Zrotation Xrotation Yrotation
          JOINT LeftArm
          {
            OFFSET 0 12.4537 0
            CHANNELS 3 Zrotation Xrotation Yrotation
            JOINT LeftArmRoll
            {
              OFFSET 0 6.28686 0
              CHANNELS 3 Zrotation Xrotation Yrotation
              JOINT LeftForeArm
              {
                OFFSET 0 18.3114 0
                CHANNELS 3 Zrotation Xrotation Yrotation
                JOINT LeftForeArmRoll
                {
                  OFFSET 0 7.05482 0
                  CHANNELS 3 Zrotation Xrotation Yrotation
                  JOINT LeftHand
                  {
                    OFFSET 0 14.1575 0
                    CHANNELS 3 Zrotation Xrotation Yrotation
                    End Site
                    {
                      OFFSET 0 0 0
                    }
                  }
                }
              }
            }
          }
        }
      }
    }
  }
  JOINT RightUpLeg
  {
    OFFSET -5.66616 -1.03903 -0.87161
    CHANNELS 3 Zrotation Xrotation Yrotation
    JOINT RightUpLegRoll
    {
      OFFSET 0 16.6005 0
      CHANNELS 3 Zrotation Xrotation Yrotation
      JOINT RightLeg
      {
        OFFSET 0 -20.5572 0
        CHANNELS 3 Zrotation Xrotation Yrotation
        JOINT RightLegRoll
        {
          OFFSET 0 20.6244 0
          CHANNELS 3 Zrotation Xrotation Yrotation
          JOINT RightFoot
          {
            OFFSET 0 17.1664 0
            CHANNELS 3 Zrotation Xrotation Yrotation
            JOINT RightToeBase
            {
              OFFSET 0 14.3502 0
              CHANNELS 3 Zrotation Xrotation Yrotation
              End Site
              {
                OFFSET 0.00608252 6.94971 -0.801061
              }
            }
          }
        }
      }
    }
  }
  JOINT LeftUpLeg
  {
    OFFSET 5.66616 -1.03903 -0.87161
    CHANNELS 3 Zrotation Xrotation Yrotation
    JOINT LeftUpLegRoll
    {
      OFFSET 0 16.6006 0
      CHANNELS 3 Zrotation Xrotation Yrotation
      JOINT LeftLeg
      {
        OFFSET 0 20.5571 0
        CHANNELS 3 Zrotation Xrotation Yrotation
        JOINT LeftLegRoll
        {
          OFFSET 0 20.8151 0
          CHANNELS 3 Zrotation Xrotation Yrotation
          JOINT LeftFoot
          {
            OFFSET 0 16.9757 0
            CHANNELS 3 Zrotation Xrotation Yrotation
            JOINT LeftToeBase
            {
              OFFSET 0 14.3502 0
              CHANNELS 3 Zrotation Xrotation Yrotation
              End Site
              {
                OFFSET -0.0272592 6.9497 -0.801061
              }
            }
          }
        }
      }
    }
  }
}
MOTION
Frames: 11
Frame Time: 0.00208333
54.5378 85.7496 14.0022 -1.84669 -4.34741 -3.36357 0.000261887 -0.952619 -0.109062 -0.000778514 2.0738 -0.210564 0.00187317 3.71887 -0.210965 3.85711 4.9636 -0.36396 -1.12643 5.58061 0.578912 61.6828 -2.65179 -1.87837 108.92 18.1986 3.67047 -1.1571e-005 -1.09502e-006 -8.16237e-006 13.8703 3.73084 -0.845642 -5.19494e-006 -1.78822e-006 -3.01086 8.02888 -4.95147 0.697716 -54.1398 -1.5648 0.432207 -113.03 15.8244 0.175119 -8.75125e-006 1.69289e-006 1.24558e-005 -9.90398 3.49281 0.842539 -1.18311e-006 -3.812e-006 3 -8.02896 -4.95147 -0.69769 176.756 -2.52755 -0.143805 180 7.01529e-015 178.849 177.923 5.19097 179.693 -1.98147e-006 1.70924e-006 0.0351503 -18.578 67.7903 19.3596 8.13649 25.2327 -3.48774 -173.526 -2.30258 -0.522126 4.54188e-006 -4.6773e-006 -1.10071 -1.03405 -7.41867 0.502242 5.15392e-008 -6.38619e-006 -0.0300405 17.8168 68.5625 -19.9843 -8.13653 25.2332 3.48697 
54.5379 85.741 14.0055 -1.84755 -4.35102 -3.36546 0.000513928 -0.952427 -0.109067 -0.000835683 2.07545 -0.211304 0.00181071 3.72052 -0.211685 3.85922 4.9606 -0.365396 -1.12784 5.58846 0.577935 61.6818 -2.65541 -1.88041 108.923 18.2 3.66265 -1.1571e-005 -1.09502e-006 -8.16237e-006 13.8729 3.74188 -0.847031 -5.19494e-006 -1.78822e-006 -3.01086 8.02888 -4.95147 0.697716 -54.1392 -1.56842 0.434601 -113.033 15.8298 0.179324 -8.75125e-006 1.69289e-006 1.24558e-005 -9.90345 3.49306 0.842581 -1.18311e-006 -3.812e-006 3 -8.02896 -4.95147 -0.69769 176.758 -2.53143 -0.144677 180 7.01529e-015 178.849 177.924 5.1904 179.693 -1.98147e-006 1.70924e-006 0.0351503 -18.5778 67.7901 19.3595 8.13649 25.2327 -3.48774 -173.527 -2.3095 -0.522106 4.54188e-006 -4.6773e-006 -1.10073 -1.03413 -7.41553 0.502289 5.15392e-008 -6.38619e-006 -0.0300405 17.8171 68.5628 -19.9825 -8.13653 25.2332 3.48697 
54.5354 85.7418 14.0061 -1.8484 -4.35473 -3.36741 0.00077632 -0.952212 -0.109076 -0.000899375 2.07719 -0.21207 0.00174157 3.72226 -0.212431 3.86134 4.95738 -0.366861 -1.12924 5.59635 0.576924 61.6805 -2.6591 -1.88247 108.927 18.2014 3.65453 -1.1571e-005 -1.09502e-006 -8.16237e-006 13.8756 3.75315 -0.848445 -5.19494e-006 -1.78822e-006 -3.01086 8.02888 -4.95147 0.697716 -54.1385 -1.57231 0.437169 -113.036 15.8355 0.183587 -8.75125e-006 1.69289e-006 1.24558e-005 -9.90285 3.4931 0.842595 -1.18311e-006 -3.812e-006 3 -8.02896 -4.95147 -0.69769 176.759 -2.53536 -0.145553 180 7.01529e-015 178.849 177.925 5.18981 179.693 -1.98147e-006 1.70924e-006 0.0351503 -18.5777 67.79 19.3594 8.13649 25.2327 -3.48774 -173.527 -2.31664 -0.522075 4.54188e-006 -4.6773e-006 -1.10076 -1.03423 -7.41222 0.502334 5.15392e-008 -6.38619e-006 -0.0300405 17.8174 68.5631 -19.9807 -8.13653 25.2332 3.48697 
54.5385 85.7443 14.0065 -1.84925 -4.3585 -3.36941 0.00104596 -0.95198 -0.109088 -0.000967612 2.07898 -0.212853 0.00166775 3.72404 -0.213194 3.86346 4.95401 -0.368346 -1.13064 5.60428 0.575887 61.679 -2.66282 -1.88453 108.93 18.2028 3.6462 -1.1571e-005 -1.09502e-006 -8.16237e-006 13.8784 3.76458 -0.849874 -5.19494e-006 -1.78822e-006 -3.01086 8.02888 -4.95147 0.697716 -54.1377 -1.57639 0.439858 -113.039 15.8412 0.187891 -8.75125e-006 1.69289e-006 1.24558e-005 -9.90221 3.49297 0.842589 -1.18311e-006 -3.812e-006 3 -8.02896 -4.95147 -0.69769 176.761 -2.53935 -0.14643 180 7.01529e-015 178.849 177.926 5.1892 179.693 -1.98147e-006 1.70924e-006 0.0351503 -18.5776 67.7898 19.3592 8.13649 25.2327 -3.48774 -173.527 -2.32393 -0.522035 4.54188e-006 -4.6773e-006 -1.10079 -1.03436 -7.40881 0.502379 5.15392e-008 -6.38619e-006 -0.0300405 17.8177 68.5633 -19.9788 -8.13653 25.2332 3.48697 
54.5429 85.7434 14.0163 -1.85009 -4.36231 -3.37144 0.00131973 -0.951739 -0.109102 -0.00103843 2.0808 -0.213647 0.0015913 3.72586 -0.213968 3.86558 4.95055 -0.369844 -1.13203 5.61223 0.574837 61.6775 -2.66657 -1.8866 108.934 18.2041 3.63775 -1.1571e-005 -1.09502e-006 -8.16237e-006 13.8813 3.7761 -0.851314 -5.19494e-006 -1.78822e-006 -3.01086 8.02888 -4.95147 0.697716 -54.1369 -1.58057 0.442616 -113.042 15.8471 0.192219 -8.75125e-006 1.69289e-006 1.24558e-005 -9.90154 3.49276 0.842572 -1.18311e-006 -3.812e-006 3 -8.02896 -4.95147 -0.69769 176.763 -2.54336 -0.14731 180 7.01529e-015 178.849 177.927 5.18859 179.693 -1.98147e-006 1.70924e-006 0.0351503 -18.5774 67.7897 19.3591 8.13649 25.2327 -3.48774 -173.528 -2.33132 -0.521991 4.54188e-006 -4.6773e-006 -1.10083 -1.03449 -7.40533 0.502424 5.15392e-008 -6.38619e-006 -0.0300405 17.8181 68.5636 -19.9769 -8.13653 25.2332 3.48697 
54.5416 85.753 14.0155 -1.85093 -4.36613 -3.37347 0.00159455 -0.951495 -0.109116 -0.00110985 2.08263 -0.214443 0.00151423 3.72769 -0.214744 3.86771 4.94707 -0.371344 -1.13342 5.62019 0.573784 61.6759 -2.67032 -1.88868 108.938 18.2055 3.62927 -1.1571e-005 -1.09502e-006 -8.16237e-006 13.8841 3.78764 -0.852755 -5.19494e-006 -1.78822e-006 -3.01086 8.02888 -4.95147 0.697716 -54.1362 -1.58479 0.445391 -113.046 15.8529 0.196552 -8.75125e-006 1.69289e-006 1.24558e-005 -9.90087 3.49252 0.842552 -1.18311e-006 -3.812e-006 3 -8.02896 -4.95147 -0.69769 176.765 -2.54737 -0.148189 180 7.01529e-015 178.849 177.927 5.18796 179.693 -1.98147e-006 1.70924e-006 0.0351503 -18.5773 67.7895 19.3589 8.13649 25.2327 -3.48774 -173.528 -2.33874 -0.521946 4.54188e-006 -4.6773e-006 -1.10087 -1.03464 -7.40183 0.502468 5.15392e-008 -6.38619e-006 -0.0300405 17.8184 68.5638 -19.9749 -8.13653 25.2332 3.48697 
54.533 85.7493 13.998 -1.85177 -4.36993 -3.3755 0.00186729 -0.951256 -0.10913 -0.0011799 2.08444 -0.215234 0.00143854 3.7295 -0.215514 3.86983 4.94363 -0.372838 -1.13482 5.62814 0.572737 61.6743 -2.67406 -1.89074 108.941 18.2069 3.62085 -1.1571e-005 -1.09502e-006 -8.16237e-006 13.887 3.79914 -0.854192 -5.19494e-006 -1.78822e-006 -3.01086 8.02888 -4.95147 0.697716 -54.1354 -1.58895 0.448132 -113.049 15.8588 0.200875 -8.75125e-006 1.69289e-006 1.24558e-005 -9.90021 3.49233 0.842538 -1.18311e-006 -3.812e-006 3 -8.02896 -4.95147 -0.69769 176.766 -2.55138 -0.149068 180 7.01529e-015 178.849 177.928 5.18733 179.693 -1.98147e-006 1.70924e-006 0.0351503 -18.5772 67.7893 19.3588 8.13649 25.2327 -3.48774 -173.528 -2.3461 -0.521903 4.54188e-006 -4.6773e-006 -1.1009 -1.03477 -7.39837 0.502513 5.15392e-008 -6.38619e-006 -0.0300405 17.8187 68.564 -19.973 -8.13653 25.2332 3.48697 
54.5381 85.7444 14.0039 -1.85262 -4.37368 -3.37748 0.00213485 -0.951029 -0.109141 -0.00124663 2.08621 -0.216013 0.00136627 3.73128 -0.216273 3.87195 4.9403 -0.374318 -1.13622 5.63606 0.571708 61.6729 -2.67778 -1.89281 108.945 18.2082 3.61258 -1.1571e-005 -1.09502e-006 -8.16237e-006 13.8897 3.81052 -0.855617 -5.19494e-006 -1.78822e-006 -3.01086 8.02888 -4.95147 0.697716 -54.1346 -1.59297 0.450786 -113.052 15.8645 0.205168 -8.75125e-006 1.69289e-006 1.24558e-005 -9.89958 3.49225 0.842537 -1.18311e-006 -3.812e-006 3 -8.02896 -4.95147 -0.69769 176.768 -2.55535 -0.149946 180 7.01529e-015 178.849 177.929 5.18674 179.693 -1.98147e-006 1.70924e-006 0.0351503 -18.5771 67.7892 19.3586 8.13649 25.2327 -3.48774 -173.529 -2.35335 -0.521866 4.54188e-006 -4.6773e-006 -1.10094 -1.03489 -7.39498 0.502558 5.15392e-008 -6.38619e-006 -0.0300405 17.819 68.5643 -19.9711 -8.13653 25.2332 3.48697 
54.548 85.743 13.992 -1.85348 -4.37736 -3.37942 0.00239414 -0.950821 -0.109149 -0.00130807 2.08792 -0.216771 0.00129942 3.73298 -0.217011 3.87407 4.93715 -0.375774 -1.13762 5.64394 0.570706 61.6717 -2.68144 -1.89486 108.948 18.2096 3.60455 -1.1571e-005 -1.09502e-006 -8.16237e-006 13.8924 3.82172 -0.857024 -5.19494e-006 -1.78822e-006 -3.01086 8.02888 -4.95147 0.697716 -54.134 -1.59678 0.453301 -113.055 15.8701 0.209415 -8.75125e-006 1.69289e-006 1.24558e-005 -9.899 3.49235 0.842559 -1.18311e-006 -3.812e-006 3 -8.02896 -4.95147 -0.69769 176.77 -2.55927 -0.15082 180 7.01529e-015 178.849 177.93 5.18614 179.693 -1.98147e-006 1.70924e-006 0.0351503 -18.5769 67.789 19.3585 8.13649 25.2327 -3.48774 -173.529 -2.36043 -0.521838 4.54188e-006 -4.6773e-006 -1.10096 -1.03498 -7.39172 0.502604 5.15392e-008 -6.38619e-006 -0.0300405 17.8194 68.5645 -19.9693 -8.13653 25.2332 3.48697 
54.5406 85.7408 13.9932 -1.85434 -4.38093 -3.38129 0.00264204 -0.950638 -0.109152 -0.00136226 2.08954 -0.217501 0.00123999 3.73461 -0.217721 3.87618 4.93424 -0.377198 -1.13903 5.65176 0.569744 61.6707 -2.68505 -1.8969 108.951 18.2111 3.59685 -1.1571e-005 -1.09502e-006 -8.16237e-006 13.895 3.83266 -0.858405 -5.19494e-006 -1.78822e-006 -3.01086 8.02888 -4.95147 0.697716 -54.1334 -1.60029 0.455626 -113.058 15.8754 0.213598 -8.75125e-006 1.69289e-006 1.24558e-005 -9.89849 3.4927 0.842612 -1.18311e-006 -3.812e-006 3 -8.02896 -4.95147 -0.69769 176.771 -2.56311 -0.151691 180 7.01529e-015 178.849 177.931 5.18559 179.692 -1.98147e-006 1.70924e-006 0.0351503 -18.5768 67.7889 19.3584 8.13649 25.2327 -3.48774 -173.529 -2.36725 -0.521823 4.54188e-006 -4.6773e-006 -1.10098 -1.03504 -7.38864 0.502652 5.15392e-008 -6.38619e-006 -0.0300405 17.8196 68.5648 -19.9677 -8.13653 25.2332 3.48697 
54.5368 85.7445 14.0094 -1.85522 -4.38437 -3.38306 0.00287545 -0.950487 -0.109149 -0.00140724 2.09105 -0.218195 0.00119001 3.73612 -0.218397 3.87828 4.93163 -0.378581 -1.14045 5.65951 0.56883 61.6701 -2.68857 -1.89892 108.954 18.2126 3.58956 -1.1571e-005 -1.09502e-006 -8.16237e-006 13.8973 3.84329 -0.859753 -5.19494e-006 -1.78822e-006 -3.01086 8.02888 -4.95147 0.697716 -54.133 -1.60343 0.457708 -113.061 15.8805 0.217701 -8.75125e-006 1.69289e-006 1.24558e-005 -9.89808 3.49336 0.842704 -1.18311e-006 -3.812e-006 3 -8.02896 -4.95147 -0.69769 176.773 -2.56687 -0.152557 180 7.01529e-015 178.849 177.932 5.18508 179.692 -1.98147e-006 1.70924e-006 0.0351503 -18.5767 67.7887 19.3582 8.13649 25.2327 -3.48774 -173.53 -2.37375 -0.521825 4.54188e-006 -4.6773e-006 -1.10098 -1.03506 -7.38579 0.5027 5.15392e-008 -6.38619e-006 -0.0300405 17.8199 68.5651 -19.9661 -8.13653 25.2332 3.48697 
